# xmcd
#
# Track frame offsets: 
#        150
#        23892
#        44907
#        65537
#        86020
#        105540
#        131270
#        149832
#        170100
#        194647
#        217982
#        242292
#        261382
#        298317
#
# Disc length: 4105 seconds
#
# Revision: 7
# Processed by: cddbd v1.5.2PL0 Copyright (c) Steve Scherf et al.
# Submitted via: ExactAudioCopyFreeDBPlugin 1.0
#
DISCID=e310070e
DTITLE=Eric Benét - A Day In The Life
DYEAR=1999
DGENRE=R&B
TTITLE0=That's Just My Way
TTITLE1=Georgy Porgy (feat. Faith Evans)
TTITLE2=Spend My Life With You (feat. Tamia)
TTITLE3=Something Real
TTITLE4=Loving Your Best Friend
TTITLE5=When You Think Of Me (feat. Roy Ayers)
TTITLE6=Lamentation
TTITLE7=Dust In The Wind
TTITLE8=Why You Follow Me
TTITLE9=Come As You Are
TTITLE10=Love The Hurt Away
TTITLE11=Ghetto Girl (feat. Me'Shell Ndegeocello)
TTITLE12=Love Of My Own
TTITLE13=DATA
EXTD=YEAR: 1999 ID3G: 14
EXTT0=
EXTT1=featuring Faith Evans
EXTT2=featuring Tamia
EXTT3=
EXTT4=
EXTT5=featuring Roy Ayers
EXTT6=
EXTT7=
EXTT8=
EXTT9=
EXTT10=
EXTT11=featuring Me'shell Ndegéocello
EXTT12=
EXTT13=
PLAYORDER=
